<?xml version="1.0" encoding="UTF-8"?>
<!DOCTYPE svg PUBLIC "-//W3C//DTD SVG 1.1//EN" "http://www.w3.org/Graphics/SVG/1.1/DTD/svg11.dtd">
<!-- Creator: CorelDRAW -->
<svg xmlns="http://www.w3.org/2000/svg" xml:space="preserve" width="65.8637mm" height="66.2303mm" version="1.1" style="shape-rendering:geometricPrecision; text-rendering:geometricPrecision; image-rendering:optimizeQuality; fill-rule:evenodd; clip-rule:evenodd"
viewBox="0 0 94.54 95.07"
 xmlns:xlink="http://www.w3.org/1999/xlink"
 xmlns:xodm="http://www.corel.com/coreldraw/odm/2003">
 <defs>
  <style type="text/css">
   <![CDATA[
    .fil0 {fill:#001925;fill-rule:nonzero}
   ]]>
  </style>
 </defs>
 <g id="Camada_x0020_1">
  <metadata id="CorelCorpID_0Corel-Layer"/>
  <path class="fil0" d="M80.69 67.37c0.41,-0.72 0.91,-1.28 1.51,-1.68 0.6,-0.4 1.28,-0.61 2.03,-0.62 0.75,-0.01 1.54,0.22 2.37,0.69 0.61,0.35 1.1,0.75 1.46,1.21 0.36,0.46 0.6,0.96 0.73,1.49 0.13,0.53 0.14,1.08 0.05,1.64 -0.1,0.56 -0.29,1.1 -0.59,1.63 -0.22,0.38 -0.46,0.73 -0.74,1.05 -0.28,0.32 -0.57,0.6 -0.87,0.85l-0.2 0.15 -0.92 -0.87 0.21 -0.26c0.24,-0.29 0.45,-0.55 0.65,-0.79 0.2,-0.24 0.38,-0.5 0.54,-0.78 0.27,-0.49 0.43,-0.97 0.45,-1.45 0.03,-0.48 -0.08,-0.92 -0.34,-1.35 -0.25,-0.42 -0.66,-0.79 -1.22,-1.11 -0.57,-0.32 -1.1,-0.49 -1.58,-0.5 -0.49,-0.01 -0.92,0.11 -1.31,0.37 -0.39,0.26 -0.72,0.64 -1,1.13 -0.15,0.27 -0.28,0.56 -0.4,0.88 -0.12,0.32 -0.23,0.67 -0.33,1.03l-0.14 0.55 -1.21 -0.33 0.05 -0.41c0.05,-0.45 0.14,-0.89 0.28,-1.32 0.14,-0.43 0.31,-0.84 0.52,-1.21z"/>
  <path id="_1" class="fil0" d="M75.99 73.62c0.57,-0.67 1.2,-1.13 1.9,-1.38 0.7,-0.25 1.42,-0.3 2.15,-0.15 0.73,0.15 1.43,0.51 2.09,1.08 0.66,0.56 1.12,1.2 1.38,1.9 0.26,0.7 0.32,1.42 0.17,2.15 -0.14,0.73 -0.49,1.42 -1.05,2.07 -0.57,0.67 -1.21,1.13 -1.91,1.39 -0.7,0.25 -1.42,0.3 -2.15,0.15 -0.73,-0.15 -1.42,-0.52 -2.08,-1.08 -0.66,-0.56 -1.12,-1.19 -1.38,-1.9 -0.26,-0.7 -0.32,-1.42 -0.18,-2.16 0.14,-0.74 0.49,-1.43 1.05,-2.08zm1.12 0.95c-0.35,0.41 -0.58,0.85 -0.67,1.3 -0.09,0.45 -0.05,0.91 0.14,1.36 0.18,0.46 0.51,0.89 0.99,1.29 0.47,0.4 0.95,0.66 1.42,0.77 0.47,0.11 0.92,0.08 1.36,-0.08 0.43,-0.16 0.83,-0.45 1.19,-0.87 0.35,-0.41 0.57,-0.84 0.66,-1.29 0.09,-0.45 0.05,-0.9 -0.13,-1.35 -0.18,-0.45 -0.51,-0.88 -0.99,-1.29 -0.47,-0.41 -0.95,-0.66 -1.42,-0.77 -0.47,-0.11 -0.93,-0.09 -1.36,0.08 -0.43,0.16 -0.82,0.45 -1.18,0.86z"/>
  <polygon id="_2" class="fil0" points="71.91,78 76.5,85.17 75.33,85.91 68.42,83.82 68.4,83.83 71.36,88.45 70.03,89.31 65.44,82.14 66.47,81.49 73.65,83.7 73.67,83.68 70.58,78.86 "/>
  <polygon id="_3" class="fil0" points="61.45,83.8 64.15,90.38 66.86,89.27 67.39,90.56 60.52,93.38 59.99,92.09 62.68,90.99 59.98,84.41 "/>
  <path id="_4" class="fil0" d="M57.76 85.17l-1.69 8.97 -1.82 0.34 -4.83 -7.75 1.72 -0.32 3.69 6.23 0.04 -0.01 1.26 -7.16 1.62 -0.3zm-1.71 2.04l0.26 1.37 -4.25 0.79 -0.26 -1.37 4.25 -0.79z"/>
  <polygon id="_5" class="fil0" points="47.02,86.47 46.78,93.57 49.71,93.67 49.66,95.06 42.24,94.82 42.29,93.42 45.19,93.52 45.43,86.41 "/>
  <polygon id="_6" class="fil0" points="41.16,86.06 39.27,94.35 33.05,92.93 33.36,91.57 38.03,92.63 38.48,90.63 34.29,89.68 34.6,88.31 38.79,89.27 39.3,87.07 34.55,85.98 34.86,84.62 "/>
  <path id="_7" class="fil0" d="M31.07 83.17l-7.15 5.66 -1.59 -0.93 1.43 -9.02 1.51 0.89 -1.3 7.13 0.03 0.02 5.64 -4.58 1.43 0.84zm-2.63 0.42l-0.71 1.21 -3.73 -2.19 0.71 -1.21 3.73 2.19z"/>
  <path id="_8" class="fil0" d="M20.12 75.26c0.75,0.7 1.28,1.43 1.57,2.18 0.29,0.75 0.36,1.5 0.2,2.25 -0.16,0.75 -0.55,1.45 -1.17,2.12 -0.49,0.52 -1,0.9 -1.55,1.13 -0.55,0.23 -1.11,0.34 -1.67,0.31 -0.57,-0.02 -1.13,-0.16 -1.68,-0.42 -0.55,-0.25 -1.06,-0.61 -1.54,-1.05 -0.28,-0.26 -0.53,-0.55 -0.77,-0.86 -0.24,-0.32 -0.44,-0.65 -0.62,-1.01l-0.18 -0.38 1.04 -0.71 0.27 0.39c0.2,0.28 0.4,0.55 0.61,0.8 0.2,0.25 0.41,0.47 0.62,0.66 0.45,0.42 0.92,0.71 1.41,0.88 0.49,0.17 0.98,0.19 1.47,0.06 0.49,-0.13 0.96,-0.43 1.41,-0.92 0.45,-0.48 0.73,-0.97 0.84,-1.47 0.11,-0.5 0.06,-1 -0.15,-1.5 -0.21,-0.5 -0.57,-0.99 -1.08,-1.46 -0.17,-0.16 -0.36,-0.32 -0.57,-0.47 -0.21,-0.15 -0.44,-0.29 -0.67,-0.42l-1.32 1.43 1.69 1.57 -0.95 1.02 -2.86 -2.65 2.83 -3.05c0.31,0.09 0.63,0.2 0.96,0.36 0.34,0.15 0.66,0.33 0.98,0.53 0.32,0.2 0.62,0.43 0.89,0.68z"/>
  <path id="_9" class="fil0" d="M14.6 68.48c0.48,0.73 0.74,1.47 0.78,2.22 0.04,0.74 -0.11,1.44 -0.47,2.1 -0.36,0.66 -0.9,1.22 -1.63,1.7 -0.73,0.47 -1.46,0.73 -2.21,0.78 -0.75,0.05 -1.45,-0.1 -2.11,-0.44 -0.66,-0.35 -1.22,-0.88 -1.69,-1.59 -0.48,-0.74 -0.74,-1.48 -0.79,-2.23 -0.04,-0.74 0.11,-1.44 0.47,-2.1 0.35,-0.66 0.9,-1.22 1.62,-1.69 0.73,-0.47 1.46,-0.73 2.21,-0.79 0.75,-0.05 1.46,0.1 2.12,0.44 0.66,0.35 1.23,0.88 1.7,1.6zm-1.23 0.8c-0.3,-0.46 -0.65,-0.79 -1.05,-1.01 -0.41,-0.22 -0.86,-0.3 -1.35,-0.26 -0.49,0.05 -1,0.24 -1.52,0.58 -0.52,0.34 -0.9,0.72 -1.14,1.14 -0.24,0.42 -0.34,0.86 -0.31,1.32 0.03,0.46 0.2,0.92 0.5,1.38 0.29,0.45 0.64,0.78 1.05,1 0.41,0.22 0.85,0.31 1.34,0.26 0.48,-0.04 0.99,-0.24 1.52,-0.58 0.52,-0.34 0.91,-0.72 1.15,-1.14 0.24,-0.42 0.35,-0.86 0.31,-1.33 -0.03,-0.46 -0.2,-0.92 -0.49,-1.37z"/>
  <path id="_10" class="fil0" d="M11.48 63.39l-8.09 2.63 -1.18 -3.62c-0.19,-0.59 -0.26,-1.12 -0.2,-1.62 0.06,-0.49 0.23,-0.92 0.52,-1.28 0.29,-0.36 0.7,-0.62 1.22,-0.79 0.44,-0.14 0.85,-0.19 1.23,-0.13 0.38,0.06 0.72,0.19 1.03,0.42 0.31,0.22 0.58,0.52 0.82,0.89 0.24,0.37 0.44,0.8 0.6,1.28l0.54 1.67 3 -0.98 0.49 1.51zm-1.7 -5.22l-2.61 3.02 -0.77 -1.34 2.82 -3.37 0.55 1.69zm-3.13 5.12l-0.64 -1.97c-0.15,-0.47 -0.38,-0.8 -0.68,-0.99 -0.3,-0.19 -0.65,-0.22 -1.06,-0.08 -0.4,0.13 -0.65,0.36 -0.76,0.67 -0.1,0.32 -0.08,0.72 0.08,1.21l0.63 1.95 2.43 -0.79z"/>
  <path id="_11" class="fil0" d="M9.19 56.1l-8.91 -1.97 -0.28 -1.83 7.9 -4.58 0.27 1.73 -6.35 3.5 0.01 0.04 7.11 1.49 0.25 1.63zm-1.98 -1.77l-1.38 0.21 -0.66 -4.27 1.38 -0.21 0.66 4.27z"/>
  <path class="fil0" d="M13.87 27.65c-0.41,0.72 -0.91,1.28 -1.51,1.68 -0.6,0.4 -1.28,0.61 -2.03,0.62 -0.75,0.01 -1.54,-0.22 -2.37,-0.69 -0.61,-0.35 -1.1,-0.75 -1.46,-1.21 -0.36,-0.46 -0.6,-0.96 -0.73,-1.49 -0.13,-0.53 -0.14,-1.08 -0.05,-1.64 0.1,-0.56 0.29,-1.1 0.59,-1.63 0.22,-0.38 0.46,-0.73 0.74,-1.05 0.28,-0.32 0.57,-0.6 0.87,-0.85l0.2 -0.15 0.92 0.87 -0.21 0.26c-0.24,0.29 -0.45,0.55 -0.65,0.79 -0.2,0.24 -0.38,0.5 -0.54,0.78 -0.27,0.49 -0.43,0.97 -0.45,1.45 -0.03,0.48 0.08,0.92 0.34,1.35 0.25,0.42 0.66,0.79 1.22,1.11 0.57,0.32 1.1,0.49 1.58,0.5 0.49,0.01 0.92,-0.11 1.31,-0.37 0.39,-0.26 0.72,-0.64 1,-1.13 0.15,-0.27 0.28,-0.56 0.4,-0.88 0.12,-0.32 0.23,-0.67 0.33,-1.03l0.14 -0.55 1.21 0.33 -0.05 0.41c-0.05,0.45 -0.14,0.89 -0.28,1.32 -0.14,0.43 -0.31,0.84 -0.52,1.21z"/>
  <path id="_1_0" class="fil0" d="M18.57 21.41c-0.61,0.63 -1.27,1.05 -1.98,1.26 -0.71,0.21 -1.43,0.22 -2.15,0.02 -0.72,-0.2 -1.39,-0.6 -2.03,-1.2 -0.63,-0.6 -1.05,-1.26 -1.27,-1.98 -0.22,-0.72 -0.24,-1.44 -0.05,-2.16 0.19,-0.72 0.58,-1.39 1.17,-2 0.61,-0.64 1.27,-1.06 1.99,-1.27 0.71,-0.21 1.43,-0.22 2.15,-0.02 0.72,0.2 1.39,0.6 2.02,1.2 0.63,0.6 1.05,1.26 1.27,1.97 0.22,0.72 0.24,1.44 0.05,2.17 -0.19,0.73 -0.58,1.4 -1.17,2.02zm-1.06 -1.02c0.38,-0.39 0.62,-0.81 0.74,-1.26 0.12,-0.45 0.1,-0.9 -0.06,-1.37 -0.16,-0.47 -0.46,-0.91 -0.91,-1.35 -0.45,-0.43 -0.91,-0.72 -1.37,-0.85 -0.46,-0.14 -0.92,-0.14 -1.36,0 -0.44,0.14 -0.85,0.41 -1.23,0.8 -0.37,0.39 -0.62,0.8 -0.74,1.25 -0.12,0.45 -0.1,0.9 0.05,1.36 0.15,0.46 0.46,0.91 0.91,1.35 0.45,0.43 0.91,0.72 1.37,0.86 0.47,0.14 0.92,0.14 1.36,0 0.44,-0.14 0.85,-0.4 1.23,-0.79z"/>
  <polygon id="_2_1" class="fil0" points="22.65,17 18.14,9.8 19.31,9.06 26.2,11.23 26.22,11.21 23.3,6.56 24.64,5.72 29.16,12.93 28.13,13.57 20.97,11.29 20.95,11.31 23.99,16.17 "/>
  <polygon id="_3_2" class="fil0" points="33.13,11.25 30.5,4.65 27.78,5.73 27.27,4.43 34.17,1.69 34.68,2.99 31.98,4.06 34.61,10.66 "/>
  <path id="_4_3" class="fil0" d="M36.83 9.89l1.69 -8.97 1.82 -0.34 4.83 7.75 -1.72 0.32 -3.69 -6.23 -0.04 0.01 -1.26 7.16 -1.62 0.3zm1.71 -2.04l-0.26 -1.37 4.25 -0.79 0.26 1.37 -4.25 0.79z"/>
  <polygon id="_5_4" class="fil0" points="47.57,8.6 47.81,1.5 44.88,1.4 44.93,0 52.35,0.25 52.3,1.65 49.4,1.55 49.16,8.65 "/>
  <polygon id="_6_5" class="fil0" points="53.43,9.02 55.32,0.73 61.54,2.14 61.23,3.51 56.56,2.44 56.1,4.45 60.3,5.4 59.99,6.76 55.79,5.81 55.29,8.01 60.04,9.09 59.73,10.46 "/>
  <path id="_7_6" class="fil0" d="M63.49 11.96l7.09 -5.74 1.6 0.92 -1.34 9.04 -1.52 -0.87 1.22 -7.14 -0.03 -0.02 -5.59 4.64 -1.43 -0.82zm2.62 -0.45l0.69 -1.21 3.75 2.15 -0.69 1.21 -3.75 -2.15z"/>
  <path id="_8_7" class="fil0" d="M74.46 19.85c-0.75,-0.7 -1.28,-1.43 -1.57,-2.18 -0.29,-0.75 -0.36,-1.5 -0.2,-2.25 0.16,-0.75 0.55,-1.45 1.17,-2.12 0.49,-0.52 1,-0.9 1.55,-1.13 0.55,-0.23 1.11,-0.34 1.67,-0.31 0.57,0.02 1.13,0.16 1.68,0.42 0.55,0.25 1.06,0.61 1.54,1.05 0.28,0.26 0.53,0.55 0.77,0.86 0.24,0.32 0.44,0.65 0.62,1.01l0.18 0.38 -1.04 0.71 -0.27 -0.39c-0.2,-0.28 -0.4,-0.55 -0.61,-0.8 -0.2,-0.25 -0.41,-0.47 -0.62,-0.66 -0.45,-0.42 -0.92,-0.71 -1.41,-0.88 -0.49,-0.17 -0.98,-0.19 -1.47,-0.06 -0.49,0.13 -0.96,0.43 -1.41,0.92 -0.45,0.48 -0.73,0.97 -0.84,1.47 -0.11,0.5 -0.06,1 0.15,1.5 0.21,0.5 0.57,0.99 1.08,1.46 0.17,0.16 0.36,0.32 0.57,0.47 0.21,0.15 0.44,0.29 0.67,0.42l1.32 -1.43 -1.69 -1.57 0.95 -1.02 2.86 2.65 -2.83 3.05c-0.31,-0.09 -0.63,-0.2 -0.96,-0.36 -0.34,-0.15 -0.66,-0.33 -0.98,-0.53 -0.32,-0.2 -0.62,-0.43 -0.89,-0.68z"/>
  <path id="_9_8" class="fil0" d="M79.97 26.63c-0.48,-0.73 -0.74,-1.47 -0.78,-2.22 -0.04,-0.74 0.11,-1.44 0.47,-2.1 0.36,-0.66 0.9,-1.22 1.63,-1.7 0.73,-0.47 1.46,-0.73 2.21,-0.78 0.75,-0.05 1.45,0.1 2.12,0.45 0.66,0.35 1.22,0.88 1.69,1.59 0.48,0.74 0.74,1.48 0.79,2.23 0.04,0.74 -0.11,1.44 -0.47,2.1 -0.35,0.66 -0.9,1.22 -1.62,1.69 -0.73,0.47 -1.46,0.73 -2.21,0.79 -0.75,0.05 -1.46,-0.1 -2.12,-0.44 -0.66,-0.35 -1.23,-0.88 -1.7,-1.6zm1.23 -0.8c0.3,0.46 0.65,0.79 1.05,1.01 0.41,0.22 0.86,0.3 1.35,0.26 0.49,-0.05 1,-0.24 1.52,-0.58 0.52,-0.34 0.9,-0.72 1.14,-1.14 0.24,-0.42 0.34,-0.86 0.31,-1.32 -0.03,-0.46 -0.2,-0.92 -0.5,-1.38 -0.29,-0.45 -0.64,-0.78 -1.05,-1 -0.41,-0.22 -0.85,-0.31 -1.34,-0.26 -0.48,0.04 -0.99,0.24 -1.52,0.58 -0.52,0.34 -0.91,0.72 -1.15,1.14 -0.24,0.42 -0.35,0.86 -0.31,1.33 0.03,0.46 0.2,0.92 0.49,1.37z"/>
  <path id="_10_9" class="fil0" d="M83.06 31.74l8.09 -2.63 1.18 3.62c0.19,0.59 0.26,1.12 0.2,1.62 -0.06,0.49 -0.23,0.92 -0.52,1.28 -0.29,0.36 -0.7,0.62 -1.22,0.79 -0.44,0.14 -0.85,0.19 -1.23,0.13 -0.38,-0.06 -0.72,-0.19 -1.03,-0.42 -0.31,-0.22 -0.58,-0.52 -0.82,-0.89 -0.24,-0.37 -0.44,-0.8 -0.6,-1.28l-0.54 -1.67 -3 0.98 -0.49 -1.51zm1.7 5.22l2.61 -3.02 0.77 1.34 -2.82 3.37 -0.55 -1.69zm3.13 -5.12l0.64 1.97c0.15,0.47 0.38,0.8 0.68,0.99 0.3,0.19 0.65,0.22 1.06,0.08 0.4,-0.13 0.65,-0.36 0.76,-0.67 0.1,-0.32 0.08,-0.72 -0.08,-1.21l-0.63 -1.95 -2.43 0.79z"/>
  <path id="_11_10" class="fil0" d="M85.35 39.03l8.91 1.97 0.28 1.83 -7.9 4.58 -0.27 -1.73 6.35 -3.5 -0.01 -0.04 -7.11 -1.49 -0.25 -1.63zm1.98 1.77l1.38 -0.21 0.66 4.27 -1.38 0.21 -0.66 -4.27z"/>
 </g>
</svg>
